<svg id="Layer_1" data-name="Layer 1" xmlns="http://www.w3.org/2000/svg" viewBox="0 0 1061.33 474.67"><defs><style>.cls-1{fill:#eaa01c;}.cls-2{fill:#555454;}.cls-15,.cls-3{fill:#343434;}.cls-4{fill:#ed7b2f;}.cls-10,.cls-13,.cls-4,.cls-5,.cls-6,.cls-7,.cls-8,.cls-9{stroke:#343434;}.cls-10,.cls-4,.cls-6,.cls-8{stroke-linecap:round;stroke-linejoin:round;}.cls-17,.cls-4,.cls-6,.cls-7,.cls-9{stroke-width:5px;}.cls-14,.cls-5{fill:#fff;}.cls-13,.cls-15,.cls-17,.cls-5,.cls-7,.cls-9{stroke-miterlimit:10;}.cls-5{stroke-width:7px;}.cls-6,.cls-7{fill:#f8ecd4;}.cls-10,.cls-8{fill:none;}.cls-8{stroke-width:4px;}.cls-9{fill:#d3d3d3;}.cls-10{stroke-width:2px;}.cls-11,.cls-13{fill:#d75279;}.cls-12{fill:#fdfdfd;}.cls-13{stroke-width:3px;}.cls-15{stroke:#333;}.cls-16{fill:#e8a689;}.cls-17{fill:#ed7b30;stroke:#f8ecd5;}</style></defs><rect class="cls-1" width="1061.33" height="474.67"/><ellipse class="cls-2" cx="239.9" cy="439.03" rx="131.41" ry="28.69"/><path class="cls-3" d="M279.65,372.63l12.44,30a4.64,4.64,0,0,1-2,5.8l-11.69,6.71a4.9,4.9,0,0,1-6.82-2.05l-15.79-32.78Z" transform="translate(-0.05 -0.8)"/><path class="cls-4" d="M322.77,434.35l-33.39,12.92A18.25,18.25,0,0,1,266,437.44h0a17.45,17.45,0,0,1,10.09-22.8l33.4-12.93a18.25,18.25,0,0,1,23.42,9.83h0A17.47,17.47,0,0,1,322.77,434.35Z" transform="translate(-0.05 -0.8)"/><path class="cls-4" d="M273.22,423.57a10.54,10.54,0,0,1-13.52-5.68h0a10.08,10.08,0,0,1,5.83-13.16l25.31-9.8a10.55,10.55,0,0,1,13.52,5.68h0a10.08,10.08,0,0,1-5.83,13.16" transform="translate(-0.05 -0.8)"/><path class="cls-3" d="M198.38,372.59l-12.44,30a4.62,4.62,0,0,0,2,5.8l11.69,6.71a4.87,4.87,0,0,0,6.81-2.05l15.8-32.78Z" transform="translate(-0.05 -0.8)"/><path class="cls-4" d="M155.26,434.31l33.39,12.92a18.24,18.24,0,0,0,23.42-9.83h0A17.46,17.46,0,0,0,202,414.6l-33.39-12.93a18.26,18.26,0,0,0-23.42,9.84h0A17.45,17.45,0,0,0,155.26,434.31Z" transform="translate(-0.05 -0.8)"/><path class="cls-4" d="M204.81,423.53a10.54,10.54,0,0,0,13.52-5.68h0a10.08,10.08,0,0,0-5.83-13.16l-25.31-9.79a10.53,10.53,0,0,0-13.52,5.67h0a10.07,10.07,0,0,0,5.83,13.16" transform="translate(-0.05 -0.8)"/><path class="cls-5" d="M350.43,234.08a18.77,18.77,0,0,0-9.62-23.24c-.05-.48-.11-1-.2-1.45-1.89-10.2-11.85-16.85-22.94-15.78a18.5,18.5,0,0,0-.3-3.69c-2-11-13.54-17.93-25.69-15.36a21.31,21.31,0,0,0-2.44.65l0-.13c-2-11.05-13.54-17.93-25.68-15.37A24.12,24.12,0,0,0,248.27,170a22.36,22.36,0,0,0-20.76-5.84c-9,1.9-15.83,8.45-17.93,16.22a22.51,22.51,0,0,0-20-5.07c-11.25,2.38-19.11,12-18.58,22.2a24.64,24.64,0,0,0-5.62.53c-12.15,2.57-20.34,13.6-18.3,24.65h0c-11.94,2.71-20,13.62-17.93,24.56a18.74,18.74,0,0,0,8.43,12.39L343.45,262c7.8-1.75,13.58-8,13.58-15.51A15.36,15.36,0,0,0,350.43,234.08Z" transform="translate(-0.05 -0.8)"/><path class="cls-6" d="M87.33,293.51c-2.17-5.64.17-10.51,4.1-13.38a14.55,14.55,0,0,1,8.65-2.48c8.13-.06,16.33,8,16.33,8l0,0c5.2-7.4,10.41-5,10.41-5,7.72,2.13,3.3,12.18.66,17a2.88,2.88,0,0,0,1.52,4L159.11,316a3,3,0,0,1,1.86,2.7V336c0,2.46-3.2,3.93-5.6,2.58,0,0-57.63-31.45-61.49-35.31l-.66-.68C89.83,299.18,88.08,296.13,87.33,293.51Z" transform="translate(-0.05 -0.8)"/><line class="cls-6" x1="116.34" y1="284.9" x2="112.56" y2="293.55"/><path class="cls-6" d="M399.92,293.51A11.28,11.28,0,0,0,396,280.13a13.66,13.66,0,0,0-8.34-2.48c-7.83-.06-15.73,8-15.73,8l0,0c-5-7.4-10-5-10-5-7.43,2.13-3.17,12.18-.63,17a2.93,2.93,0,0,1-1.46,4l-29,14.31a3,3,0,0,0-1.79,2.7V336c0,2.46,3.08,3.93,5.39,2.58,0,0,55.53-31.45,59.25-35.31l.64-.68A21.67,21.67,0,0,0,399.92,293.51Z" transform="translate(-0.05 -0.8)"/><line class="cls-6" x1="371.86" y1="284.9" x2="375.5" y2="293.55"/><path class="cls-7" d="M132.24,252.89H354.92a0,0,0,0,1,0,0v28.34a99.62,99.62,0,0,1-99.62,99.62H232.92A100.68,100.68,0,0,1,132.24,280.17V252.89a0,0,0,0,1,0,0Z"/><path class="cls-8" d="M174.55,231.2s.6-19.63,22.2-9.52" transform="translate(-0.05 -0.8)"/><path class="cls-8" d="M264.06,323.81s3,11.07,16.33,10.55" transform="translate(-0.05 -0.8)"/><path class="cls-8" d="M231,354s9.73,4.69,18.35-1.33" transform="translate(-0.05 -0.8)"/><path class="cls-8" d="M211.35,331s23.28,33.09,56.54,0" transform="translate(-0.05 -0.8)"/><path class="cls-9" d="M275.59,19.81C248.41,1.64,206.06,17,181,54c-21.29,31.49-25.32,62-3.33,85.16a1.86,1.86,0,0,1,.18,2.37L39.34,337.26c-.17.23-7.53,10.37,5.55,17.94.39.22,1,.62,1.35.88a15.14,15.14,0,0,0,21-3.58s6.69-9.57,7.27-10.51l.06-.1L200.69,156.34a2,2,0,0,1,2.64-.55h0a1.81,1.81,0,0,0,.4.18,67,67,0,0,0,21.2,3.95,30.26,30.26,0,0,0,12-2.48c12-5.14,41.11-20.69,51.62-53.89C299.49,69.05,298.9,35.39,275.59,19.81Z" transform="translate(-0.05 -0.8)"/><path class="cls-9" d="M452.69,334.88,295.09,134.25c9.82-9.58,10.75-23,2-35.4l-62-87.95a7.59,7.59,0,0,0-10.26-2l-1.12.71a7.16,7.16,0,0,0-2,10.22c10.88,15.24,39.09,54.78,49.73,69.65a7.19,7.19,0,0,1-1.69,10l-.15.11a7.41,7.41,0,0,1-10.35-1.61l-51-70.9a7.57,7.57,0,0,0-9.85-2.11l-.67.37A7.16,7.16,0,0,0,195.3,35.8l49.38,70.64a7.16,7.16,0,0,1-2.3,10.31l-1.07.64c-3.37,2-8-.92-10.28-4l-49.8-68.65c-2.28-3.14-6.4-2-9.76,0A7.16,7.16,0,0,0,169.26,55l62.12,87.79c9.46,13.41,27.55,17.47,40.19,9l.06,0L419.05,341.48c.31.51,8,10,8,10A15.17,15.17,0,0,0,448,353.86c.34-.27,1-.83,1.38-1.07C462.11,344.34,452.48,334.6,452.69,334.88Z" transform="translate(-0.05 -0.8)"/><path class="cls-10" d="M274.23,192.6c-3.58,3.59-7.39,5.59-8.5,4.49s.9-4.92,4.49-8.51a18,18,0,0,1,8.5-4.48A18,18,0,0,1,274.23,192.6Z" transform="translate(-0.05 -0.8)"/><path class="cls-10" d="M291.27,199.14c-2.12,2.12-5.83,1.85-5.83,1.85s-.27-3.71,1.85-5.83,5.84-1.86,5.84-1.86S293.4,197,291.27,199.14Z" transform="translate(-0.05 -0.8)"/><path class="cls-10" d="M295.24,213.6a7.48,7.48,0,0,1-4.08,1.91,6.57,6.57,0,0,1,6-6A7.52,7.52,0,0,1,295.24,213.6Z" transform="translate(-0.05 -0.8)"/><circle class="cls-11" cx="182.88" cy="321.95" r="12.89"/><circle class="cls-11" cx="296.25" cy="321.95" r="12.89"/><path class="cls-12" d="M186.65,315.3s10.49,3.77,3.08,14.17" transform="translate(-0.05 -0.8)"/><path class="cls-12" d="M299.82,315.3s10.48,3.77,3.07,14.17" transform="translate(-0.05 -0.8)"/><circle class="cls-13" cx="239.57" cy="318.87" r="7.79"/><path class="cls-3" d="M217.29,306.67c-1.92,0-3.47-2-3.47-4.53s1.55-4.52,3.47-4.52c1.65,0,3,1.5,3.38,3.51a28.65,28.65,0,0,0,.28-3.87c0-9.49-4.75-17.18-10.6-17.18s-10.59,7.69-10.59,17.18,4.74,17.18,10.59,17.18c4,0,7.54-3.65,9.33-9A3.07,3.07,0,0,1,217.29,306.67Z" transform="translate(-0.05 -0.8)"/><path class="cls-14" d="M217.29,297.62c-1.92,0-3.47,2-3.47,4.52s1.55,4.53,3.47,4.53a3.07,3.07,0,0,0,2.39-1.26,25.27,25.27,0,0,0,1-4.28C220.31,299.12,218.94,297.62,217.29,297.62Z" transform="translate(-0.05 -0.8)"/><path class="cls-15" d="M272.64,302.14c0-2.5,1.55-4.52,3.47-4.52a3.56,3.56,0,0,1,3.16,2.68,27.43,27.43,0,0,0,.18-3c0-9.49-4.75-17.18-10.6-17.18s-10.6,7.69-10.6,17.18,4.75,17.18,10.6,17.18c3.9,0,7.29-3.42,9.13-8.5a2.87,2.87,0,0,1-1.87.73C274.19,306.67,272.64,304.64,272.64,302.14Z" transform="translate(-0.05 -0.8)"/><path class="cls-14" d="M276.11,297.62c-1.92,0-3.47,2-3.47,4.52s1.55,4.53,3.47,4.53a2.87,2.87,0,0,0,1.87-.73,24.26,24.26,0,0,0,1.29-5.64A3.56,3.56,0,0,0,276.11,297.62Z" transform="translate(-0.05 -0.8)"/><path class="cls-16" d="M323.38,407.62a3.78,3.78,0,0,0-4.92-2.16l-1.92.78a3.91,3.91,0,0,0-2.16,4.89h0a3.67,3.67,0,0,0,4.84,2.32l2-.82A3.89,3.89,0,0,0,323.38,407.62Z" transform="translate(-0.05 -0.8)"/><path class="cls-16" d="M163.85,411.28a3.78,3.78,0,0,1-4.93,2.16l-1.92-.77a3.91,3.91,0,0,1-2.15-4.9h0a3.66,3.66,0,0,1,4.83-2.32l2,.83A3.88,3.88,0,0,1,163.85,411.28Z" transform="translate(-0.05 -0.8)"/><path class="cls-17" d="M562.37,281.36a182.49,182.49,0,0,1-36.8,0c-9.19-1-17.43-7-18.67-20a54,54,0,0,1,0-13.32c1.24-13.45,9.48-18.94,18.67-19.9a182.49,182.49,0,0,1,36.8,0c8.78,1,17.43,6.45,18.67,19.9a55,55,0,0,1,0,13.32C579.8,274.36,571.15,280.4,562.37,281.36ZM581,217.12c0,4.94-2.89,8.23-7.28,8.23H514.18c-4.53,0-7.41-3.29-7.41-8.23v-4.4c0-4.94,2.88-8.23,7.41-8.23h5.9c5.22,0,9.06-7.42,14.14-7.42h18.54c5.21,0,9.06,7.42,14.14,7.42h6.72c4.53,0,7.42,3.29,7.42,8.23Zm37.89,95.27c0,5.77-3.44,9.61-8.65,9.61H515.55c-5.22,0-8.65-3.84-8.65-9.61V293.31c0-5.77,3.43-9.61,8.65-9.61h18.26c8.38,0,10.16,14.82,18.53,14.82h57.94c5.21,0,8.65,3.85,8.65,9.61Zm-72.35-51.76a15.91,15.91,0,0,0,0-11.25h-3.85a17.47,17.47,0,0,1,0,11.25Zm72.35,24.85c0,5.77-3.44,9.61-8.65,9.61H593.39c-5.22,0-8.65-3.84-8.65-9.61V209.7c0-5.76,3.43-9.61,8.65-9.61h16.89c5.21,0,8.65,3.85,8.65,9.61v11.53c0,5.77,8.51,5.5,8.51,11.26v20.87c0,5.76-8.51,5.49-8.51,11.26Z" transform="translate(-0.05 -0.8)"/><path class="cls-17" d="M644.73,322c-5.21,0-8.65-3.84-8.65-9.61V295.64c0-5.76,5.22-9.47,7.14-14.83,1-2.6,1.51-6.31,1.51-11.39V236.06c-5.21,0-8.65-3.84-8.65-9.61V209.7c0-5.76,3.44-9.61,8.65-9.61h21.15c5.21,0,8.64,3.85,8.64,9.61v78.12c0,24.71-13.86,34.18-29.24,34.18Zm32.13-9.61V295.64c0-5.76,5.21-9.47,7.14-14.83,1-2.6,1.51-6.31,1.51-11.39V236.06h-.14c-4.39,0-7.28-3.29-7.28-8.24V209.7c0-5.76,3.44-9.61,8.65-9.61h19.91c5.22,0,8.65,3.85,8.65,9.61v78.12c0,24.71-14.55,34.18-29.79,34.18C680.29,322,676.86,318.16,676.86,312.39Zm75.5,0c0,5.77-3.43,9.61-8.65,9.61H727.52c-5.22,0-8.65-3.84-8.65-9.61V209.7c0-5.76,3.43-9.61,8.65-9.61h16.19c5.22,0,8.65,3.85,8.65,9.61Z" transform="translate(-0.05 -0.8)"/><path class="cls-17" d="M843.52,293.44c-.55,13.87-8.38,27.46-22.93,28.56a167.61,167.61,0,0,1-28.69,0c-14.83-1.1-23.89-14.69-24.44-28.56-1.23-27.45-1.23-37.34,0-64.79.55-13.87,9.61-27.46,24.44-28.56a167.61,167.61,0,0,1,28.69,0c14.55,1.1,22.38,14.42,22.93,28.56.14,3.43.27,6,.27,8.92h3V209.7c0-5.76,3.43-9.61,8.65-9.61h18.67c5.22,0,8.65,3.85,8.65,9.61V312.39c0,5.77-3.43,9.61-8.65,9.61H855.46c-5.22,0-8.65-3.84-8.65-9.61V277.66h-2.74Zm-36.11-3.29a206.39,206.39,0,0,0,0-58.21h-4a217.35,217.35,0,0,1,0,58.21Z" transform="translate(-0.05 -0.8)"/><path class="cls-17" d="M926.57,312.39c0,5.77-3.57,9.61-8.65,9.61H906.8c-5.21,0-8.65-3.84-8.65-9.61V209.7c0-5.76,3.44-9.61,8.65-9.61h11.12c5.08,0,8.65,3.85,8.65,9.61v22.38c0,2.33-1.51,4-3.57,4h-.13v50H923c2.06,0,3.57,1.65,3.57,4Zm31,0c0,5.77-3.43,9.61-8.65,9.61H938.24c-5.22,0-8.65-3.84-8.65-9.61V209.7c0-5.76,3.43-9.61,8.65-9.61H949c5.22,0,8.65,3.85,8.65,9.61v22.93a3.11,3.11,0,0,1-3.16,3.43h-.14v50h.14a3.11,3.11,0,0,1,3.16,3.43Zm55.6,0c0,5.77-3.43,9.61-8.65,9.61h-7.41c-5.08,0-8.65-3.84-8.65-9.61V279h-3v33.36c0,5.77-3.44,9.61-8.65,9.61H969.4c-5.21,0-8.64-3.84-8.64-9.61V209.7c0-5.76,3.43-9.61,8.64-9.61h7.42c5.21,0,8.65,3.85,8.65,9.61v29.24h3V209.7c0-5.76,3.57-9.61,8.65-9.61h7.41c5.22,0,8.65,3.85,8.65,9.61Z" transform="translate(-0.05 -0.8)"/></svg>